<svg width="28" height="28" fill="none" xmlns="http://www.w3.org/2000/svg" viewBox="0 0 44 39">
  <g clip-path="url(#clip0_8_91)">
    <path d="M44 11.2895C44 8.29532 42.7859 5.4238 40.6248 3.30661C38.4636 1.18942 35.5325 0 32.4762 0C29.4199 0 26.4888 1.18942 24.3276 3.30661C22.1665 5.4238 20.9524 8.29532 20.9524 11.2895C20.9524 14.2836 22.1665 17.1552 24.3276 19.2723C26.4888 21.3895 29.4199 22.5789 32.4762 22.5789C35.5325 22.5789 38.4636 21.3895 40.6248 19.2723C42.7859 17.1552 44 14.2836 44 11.2895ZM32.4762 4.10526C32.754 4.10526 33.0205 4.21339 33.217 4.40586C33.4134 4.59834 33.5238 4.85938 33.5238 5.13158V10.2632H37.7143C37.9921 10.2632 38.2586 10.3713 38.4551 10.5638C38.6515 10.7562 38.7619 11.0173 38.7619 11.2895C38.7619 11.5617 38.6515 11.8227 38.4551 12.0152C38.2586 12.2077 37.9921 12.3158 37.7143 12.3158H32.4762C32.1983 12.3158 31.9319 12.2077 31.7354 12.0152C31.5389 11.8227 31.4286 11.5617 31.4286 11.2895V5.13158C31.4286 4.85938 31.5389 4.59834 31.7354 4.40586C31.9319 4.21339 32.1983 4.10526 32.4762 4.10526ZM41.9048 20.9163C39.3714 23.3038 35.9915 24.6356 32.4762 24.6316C30.4971 24.6325 28.5415 24.2108 26.7457 23.3959L21.6815 25.9945C21.4565 26.11 21.2064 26.1703 20.9524 26.1703C20.6984 26.1703 20.4482 26.11 20.2232 25.9945L0 15.6164V32.3289L0.0104764 32.7066C0.10895 34.4079 0.868197 36.0077 2.13247 37.1779C3.39674 38.3482 5.07019 39.0001 6.80952 39H35.0952L35.4808 38.9897C37.2173 38.8933 38.8503 38.1495 40.0449 36.9109C41.2394 35.6723 41.9049 34.0329 41.9048 32.3289V20.9163ZM19.9006 6.1579H6.80952L6.41981 6.16816C4.80162 6.25886 3.26951 6.91205 2.0989 8.01032C0.928295 9.10859 0.195954 10.5799 0.0335239 12.1598L20.9524 22.8951L23.693 21.4869C22.1768 20.2353 20.9583 18.6741 20.123 16.9125C19.2876 15.151 18.8556 13.2318 18.8571 11.2895C18.8571 9.47084 19.228 7.73842 19.9006 6.1579Z" fill="#FF7F50"/>
  </g>
  <defs>
    <clipPath id="clip0_8_91">
      <rect width="28" height="28" fill="white"/>
    </clipPath>
  </defs>
</svg>