<svg  viewBox="0 0 512 512" fill="none" xmlns="http://www.w3.org/2000/svg">
<rect width="512" height="512" rx="15" fill="#80B2FC"/>
<path fill-rule="evenodd" clip-rule="evenodd" d="M65.1533 287.745C67.0821 295.317 69.6816 302.76 72.9494 309.988L105.705 382.483L108.115 443.687C108.243 446.916 109.173 450.064 110.821 452.857C112.47 455.65 114.788 458.003 117.572 459.711C120.357 461.418 123.524 462.427 126.796 462.651C130.068 462.875 133.346 462.305 136.344 460.993L396.858 346.737C399.853 345.421 402.475 343.403 404.496 340.859C406.517 338.314 407.874 335.322 408.45 332.142C409.026 328.962 408.803 325.691 407.8 322.616C406.797 319.54 405.045 316.754 402.697 314.499L358.131 271.788L333.423 217.129L290.924 299.329C289.744 301.613 287.407 303.065 284.837 303.113C282.267 303.161 279.877 301.796 278.612 299.559L253.077 254.377L236.904 225.76L225.29 285.947C224.793 288.523 222.897 290.605 220.379 291.34C217.86 292.076 215.142 291.341 213.337 289.438L136.35 208.257L159.486 320.386C160.019 322.971 159.053 325.636 156.988 327.279C154.922 328.922 152.108 329.263 149.709 328.162L115.411 312.411C115.356 312.386 115.302 312.361 115.248 312.334L65.1533 287.745ZM61.9523 270.578L121.336 299.727L142.979 309.666L117.677 187.038C117.045 183.976 118.521 180.866 121.293 179.418C124.065 177.971 127.46 178.538 129.612 180.807L214.124 269.922L226.763 204.424C227.319 201.544 229.613 199.315 232.508 198.842C235.404 198.369 238.287 199.752 239.731 202.307L265.266 247.488L284.432 281.402L326.071 200.865L325.349 199.266C310.443 166.297 282.851 140.512 248.644 127.582C214.437 114.652 176.416 115.636 142.946 130.319C109.476 145.001 83.2976 172.179 70.1707 205.874C62.0738 226.657 59.3515 248.87 61.9523 270.578ZM265.501 460.222C256.439 457.621 248.606 451.94 243.394 444.189L315.305 412.663C317.663 421.666 316.705 431.2 312.602 439.573C308.498 447.946 301.514 454.615 292.891 458.395C284.267 462.176 274.563 462.823 265.501 460.222ZM308.444 88.9374C304.959 89.6003 301.883 91.5992 299.893 94.4946C297.906 97.3917 297.167 100.948 297.84 104.381C298.513 107.814 300.543 110.843 303.482 112.803C341.728 138.261 365.511 172.82 369.153 210.229C369.502 213.648 369.68 217.081 369.689 220.517C369.689 224.016 371.1 227.371 373.611 229.844C376.122 232.318 379.528 233.708 383.08 233.708C386.632 233.708 390.038 232.318 392.549 229.844C395.06 227.371 396.471 224.016 396.471 220.517C396.471 216.173 396.257 211.891 395.829 207.67C391.195 160.553 361.547 119.583 318.48 90.9595C315.539 89.0019 311.929 88.2746 308.444 88.9374ZM308.627 29.5195C307.204 30.5385 305.998 31.8239 305.079 33.3022C303.228 36.2836 302.654 39.8666 303.482 43.2646C304.311 46.6627 306.474 49.598 309.498 51.4261C370 87.9376 419.816 141.491 423.565 238.468C423.7 241.967 425.24 245.269 427.847 247.649C430.454 250.028 433.914 251.291 437.465 251.158C441.017 251.025 444.369 249.508 446.785 246.94C449.201 244.372 450.483 240.964 450.348 237.466C446.17 129.33 389.337 68.6793 323.505 28.9493C322.006 28.0424 320.339 27.4356 318.601 27.1635C316.863 26.8914 315.087 26.9595 313.376 27.3637C311.665 27.768 310.051 28.5005 308.627 29.5195Z" fill="#282725"/>
</svg>
