<svg xmlns="http://www.w3.org/2000/svg" viewBox="0 0 180 210">
  <defs>
    <style>
      .cls-1 {
        fill: #00d48c;
          stroke-width: 0px;
      }
    </style>
  </defs>


    <path class="cls-1" d="M115.2,123.3h-44.8l-49,29c1.3,1.5,2.6,3,4,4.5l46.6-27.6h41.6l46.6,27.6c1.4-1.4,2.7-2.9,4-4.5l-48.3-28.6-.7-.4h0ZM89.9,61.9l-25.7,44.5-52.8,31.2c.9,1.7,1.9,3.4,3,5.1l52.7-31.2h51.3l52.7,31.2c1.1-1.6,2.1-3.4,3-5.1l-52.8-31.2-25.7-44.5V0h-5.8v61.9h.1ZM71.5,105.6l21.4-37,21.4,37h-42.8ZM16.6,59.3l8.5-14.7v-15.2c-2.1,2.2-4,4.5-5.9,6.9v6.7l-6.9,12-5.7,3.3c-1.1,2.8-2.1,5.7-3,8.6l13-7.7h0ZM111.1,141.4l-.7-.4h-35.2l-40.8,24.2c1.7,1.3,3.3,2.6,5.1,3.8l37.3-22.1h31.9l37.3,22.1c1.7-1.2,3.4-2.5,5.1-3.8l-40.1-23.8h0ZM100.7,176.3h-15.8l-12.3,7.3c2.9.6,5.9,1.2,9,1.5l4.9-2.9h12.6l4.9,2.9c3-.4,6-.9,9-1.5l-12.3-7.3h0ZM106.3,159.1l-.7-.4h-25.5l-29.1,17.2c2.1,1.1,4.3,2.1,6.5,3l24.2-14.3h22.3l24.2,14.3c2.2-.9,4.4-1.9,6.5-3l-28.4-16.8h0ZM125.2,5.8v48.2l17.9,31,41.1,24.4c.4-2.1.7-4.2.9-6.3l-37.7-22.3-16.3-28.2V8.2c-1.9-.9-3.9-1.7-5.9-2.4h0ZM148.8,18.8c-1.9-1.4-3.9-2.8-5.9-4.1v34.7l13.2,22.8,29.6,17.5c0-2.4-.3-4.8-.5-7.2l-24.7-14.6-11.6-20.1v-29s-.1,0-.1,0ZM107.6,1.2v57.6l22.6,39.1,49.2,29.1c.7-1.9,1.4-3.7,2-5.7l-46.8-27.7-21-36.4V2.3c-1.9-.4-3.9-.8-5.9-1.1h0ZM29.6,72.2l13.2-22.8V14.6c-2,1.3-4,2.7-5.9,4.1v29l-11.6,20.1L.5,82.5c-.3,2.4-.4,4.8-.5,7.2l29.6-17.5ZM160.6,29.4v15.2l8.5,14.7,13,7.7c-.9-2.9-1.8-5.8-3-8.6l-5.7-3.3-6.9-12v-6.7c-1.9-2.4-3.8-4.7-5.9-6.9h0ZM55.5,97.8l22.5-39.1V1.2c-2,.3-3.9.7-5.9,1.1v54.9l-21,36.4L4.4,121.3c.6,1.9,1.3,3.8,2,5.7l48.5-28.7.7-.4h-.1ZM54.5,52.5l-16.3,28.2L.5,103.1c.2,2.1.5,4.2.9,6.3l40.5-24,.7-.4,17.9-31V5.8c-2,.7-4,1.5-5.9,2.4v44.2h0Z"/>

</svg>
