<svg xmlns:dc="http://purl.org/dc/elements/1.1/" xmlns:cc="http://creativecommons.org/ns#" xmlns:rdf="http://www.w3.org/1999/02/22-rdf-syntax-ns#" xmlns:svg="http://www.w3.org/2000/svg" xmlns="http://www.w3.org/2000/svg" xmlns:sodipodi="http://sodipodi.sourceforge.net/DTD/sodipodi-0.dtd" xmlns:inkscape="http://www.inkscape.org/namespaces/inkscape" width="126.00002" height="49.0014" viewBox="0 0 33.337505 12.964954" version="1.1" id="svg174" inkscape:version="0.92.0 r15299" sodipodi:docname="dunelm.svg">
  <defs id="defs168">
	
	
	
	
	
	
	
</defs>
  <sodipodi:namedview id="base" pagecolor="#ffffff" bordercolor="#666666" borderopacity="1.0" inkscape:pageopacity="0.0" inkscape:pageshadow="2" inkscape:zoom="7.1760001" inkscape:cx="62.500012" inkscape:cy="24.001386" inkscape:document-units="mm" inkscape:current-layer="layer1" showgrid="false" fit-margin-top="0" fit-margin-left="0" fit-margin-right="0" fit-margin-bottom="0" units="px" inkscape:window-width="1280" inkscape:window-height="744" inkscape:window-x="-4" inkscape:window-y="-4" inkscape:window-maximized="1"/>
  <metadata id="metadata171">
    <rdf:RDF>
      <cc:Work rdf:about="">
        <dc:format>image/svg+xml</dc:format>
        <dc:type rdf:resource="http://purl.org/dc/dcmitype/StillImage"/>
        <dc:title/>
      </cc:Work>
    </rdf:RDF>
  </metadata>
  <g inkscape:label="Layer 1" inkscape:groupmode="layer" id="layer1" transform="translate(-168.67187,-199.67113)">
    <g id="g224" transform="translate(0.13229303,-0.13228813)">
      <path id="path178" d="m 173.11952,208.2304 c -0.14552,0.27252 -0.33338,0.48948 -0.56092,0.64823 -0.23019,0.1614 -0.49212,0.27517 -0.77787,0.34396 -0.29104,0.0688 -0.58738,0.10319 -0.87842,0.10319 h -0.8599 v -4.29948 h 0.8599 c 0.29104,0 0.58738,0.0291 0.88106,0.09 0.28575,0.0582 0.54769,0.16669 0.77523,0.32544 0.22754,0.15611 0.4154,0.37306 0.55827,0.65088 0.14552,0.27781 0.21696,0.64558 0.21696,1.09273 0.005,0.42333 -0.0688,0.77523 -0.21431,1.0451 m 1.33879,-2.63525 c -0.22225,-0.42598 -0.51329,-0.77523 -0.86783,-1.03981 -0.35454,-0.26194 -0.75671,-0.45244 -1.19592,-0.56356 -0.43656,-0.11113 -0.87577,-0.16934 -1.3044,-0.16934 h -2.31245 c -0.0582,0 -0.10584,0.0476 -0.10584,0.10584 v 6.51668 c 0,0.0582 0.0476,0.10584 0.10584,0.10584 h 2.30981 c 0.43127,0 0.87312,-0.0662 1.30969,-0.19315 0.4392,-0.12965 0.84137,-0.33073 1.19327,-0.60325 0.35454,-0.27252 0.64558,-0.62442 0.86783,-1.04775 0.22225,-0.42598 0.33338,-0.93662 0.33338,-1.52135 0,-0.62707 -0.11113,-1.16152 -0.33338,-1.59015" class="st0" inkscape:connector-curvature="0" style="fill:#0fad4b;stroke-width:0.26458332"/>
      <path id="path180" d="m 179.48804,205.92059 h -1.10596 c -0.0582,0 -0.10583,0.0476 -0.10583,0.10583 v 2.42888 c 0,0.13493 -0.0212,0.27252 -0.0609,0.40745 -0.0397,0.1323 -0.0979,0.24871 -0.17198,0.34925 -0.0741,0.0979 -0.16933,0.17992 -0.28839,0.24078 -0.11642,0.0609 -0.25136,0.0926 -0.40481,0.0926 -0.15611,0 -0.28046,-0.0317 -0.36777,-0.0926 -0.0926,-0.0635 -0.16669,-0.14553 -0.21961,-0.24342 -0.0556,-0.10054 -0.09,-0.21696 -0.10848,-0.34661 -0.0185,-0.13758 -0.0265,-0.26722 -0.0265,-0.39158 v -2.44739 c 0,-0.0582 -0.0476,-0.10584 -0.10583,-0.10584 h -1.10331 c -0.0582,0 -0.10584,0.0476 -0.10584,0.10584 v 2.76225 c 0,0.23547 0.0318,0.46831 0.0953,0.69056 0.0635,0.22754 0.16934,0.43127 0.30957,0.60854 0.14023,0.17727 0.32279,0.32279 0.54239,0.42862 0.21961,0.10848 0.48419,0.16405 0.78846,0.16405 0.3519,0 0.66146,-0.0926 0.92075,-0.27252 0.14552,-0.10055 0.26723,-0.21167 0.36513,-0.33073 v 0.37041 c 0,0.0582 0.0476,0.10584 0.10583,0.10584 h 1.0504 c 0.0582,0 0.10583,-0.0476 0.10583,-0.10584 v -4.41854 c -0.003,-0.0582 -0.0503,-0.10583 -0.10848,-0.10583" class="st0" inkscape:connector-curvature="0" style="fill:#0fad4b;stroke-width:0.26458332"/>
      <path id="path182" d="m 184.26906,206.38361 c -0.14023,-0.17727 -0.32279,-0.32279 -0.5424,-0.42863 -0.2196,-0.10848 -0.48418,-0.16404 -0.78845,-0.16404 -0.3519,0 -0.66146,0.0926 -0.92075,0.27252 -0.14552,0.10054 -0.26459,0.21167 -0.36248,0.33073 v -0.37041 c 0,-0.0582 -0.0476,-0.10584 -0.10584,-0.10584 h -1.05039 c -0.0582,0 -0.10584,0.0476 -0.10584,0.10584 v 4.41854 c 0,0.0582 0.0476,0.10583 0.10584,0.10583 h 1.10596 c 0.0582,0 0.10583,-0.0476 0.10583,-0.10583 v -2.42888 c 0,-0.13758 0.0212,-0.27252 0.0608,-0.40746 0.0397,-0.13229 0.0979,-0.2487 0.17198,-0.34925 0.0741,-0.0979 0.16934,-0.17991 0.28311,-0.24341 0.11377,-0.0609 0.25135,-0.0926 0.4101,-0.0926 0.15611,0 0.28046,0.0317 0.36777,0.0926 0.0926,0.0661 0.16669,0.14816 0.21961,0.24606 0.0556,0.10054 0.0926,0.21696 0.10848,0.3466 0.0185,0.13494 0.0265,0.26723 0.0265,0.39159 v 2.44739 c 0,0.0582 0.0476,0.10584 0.10584,0.10584 h 1.10331 c 0.0582,0 0.10583,-0.0476 0.10583,-0.10584 v -2.76225 c 0,-0.23548 -0.0317,-0.46831 -0.0952,-0.69056 -0.0661,-0.22754 -0.16933,-0.43127 -0.30956,-0.60854" class="st0" inkscape:connector-curvature="0" style="fill:#0fad4b;stroke-width:0.26458332"/>
      <path id="path184" d="m 186.52596,207.688 c 0.0397,-0.23283 0.15081,-0.42597 0.33073,-0.58208 0.21166,-0.18521 0.46566,-0.27252 0.77258,-0.27252 0.16139,0 0.30427,0.0265 0.42333,0.0794 0.11642,0.0529 0.21431,0.1217 0.29104,0.20902 0.0767,0.0873 0.1323,0.18785 0.16669,0.30162 0.0265,0.0873 0.0423,0.17463 0.0503,0.26723 h -2.03464 z m 3.18558,-0.47889 c -0.11113,-0.30956 -0.26988,-0.57415 -0.46831,-0.78317 -0.20109,-0.20902 -0.43921,-0.37041 -0.71438,-0.47625 -0.27252,-0.10583 -0.5715,-0.15875 -0.889,-0.15875 -0.34396,0 -0.66675,0.0609 -0.96308,0.17727 -0.29633,0.11907 -0.55827,0.28575 -0.77523,0.50007 -0.21696,0.21431 -0.39158,0.47889 -0.51594,0.78052 -0.12435,0.30427 -0.18785,0.64293 -0.18785,1.0107 0,0.37571 0.0635,0.71438 0.18785,1.01071 0.12436,0.29898 0.30163,0.55298 0.52388,0.75936 0.22225,0.20637 0.48418,0.36512 0.78581,0.47625 0.29898,0.11112 0.62971,0.16668 0.98425,0.16668 0.8599,0 1.52665,-0.3122 1.98173,-0.92604 0.0344,-0.045 0.0265,-0.10848 -0.0185,-0.14552 l -0.73554,-0.59002 c -0.0238,-0.0185 -0.0529,-0.0265 -0.082,-0.0212 -0.0291,0.005 -0.0556,0.0212 -0.0714,0.045 -0.11377,0.16405 -0.25929,0.29369 -0.43127,0.3863 -0.17463,0.0926 -0.39159,0.14022 -0.65088,0.14022 -0.14552,0 -0.28839,-0.0265 -0.42333,-0.0767 -0.13758,-0.0503 -0.25929,-0.12171 -0.36513,-0.20903 -0.10583,-0.0847 -0.1905,-0.1905 -0.254,-0.30956 -0.0476,-0.0873 -0.0794,-0.17991 -0.0979,-0.2831 h 3.24114 c 0.0529,0 0.0979,-0.0397 0.10584,-0.0926 0.005,-0.0529 0.0106,-0.10583 0.0106,-0.16139 v -0.14817 c -0.008,-0.39952 -0.0661,-0.762 -0.17727,-1.07156" class="st0" inkscape:connector-curvature="0" style="fill:#0fad4b;stroke-width:0.26458332"/>
      <path id="path186" d="m 199.53287,206.99215 c -0.0661,-0.22754 -0.16933,-0.43127 -0.30956,-0.60854 -0.14023,-0.17727 -0.32279,-0.32279 -0.5424,-0.42863 -0.2196,-0.10848 -0.48418,-0.16404 -0.78845,-0.16404 -0.34925,0 -0.65882,0.0767 -0.91811,0.23019 -0.20902,0.12435 -0.38894,0.29369 -0.53181,0.50271 -0.12171,-0.19315 -0.28046,-0.35719 -0.47096,-0.48684 -0.24342,-0.16404 -0.55033,-0.2487 -0.91546,-0.2487 -0.18785,0 -0.36248,0.0238 -0.51858,0.0741 -0.1561,0.0503 -0.29898,0.11642 -0.42069,0.20373 -0.11906,0.0847 -0.22489,0.17992 -0.31485,0.28575 -0.0106,0.0132 -0.0212,0.0238 -0.0291,0.037 v -0.36512 c 0,-0.0582 -0.0476,-0.10584 -0.10583,-0.10584 h -1.0504 c -0.0582,0 -0.10583,0.0476 -0.10583,0.10584 v 4.41854 c 0,0.0582 0.0476,0.10583 0.10583,0.10583 h 1.10596 c 0.0582,0 0.10584,-0.0476 0.10584,-0.10583 v -2.42888 c 0,-0.13758 0.0185,-0.27516 0.0556,-0.4101 0.037,-0.13229 0.09,-0.25136 0.16139,-0.34925 0.0661,-0.0979 0.15611,-0.17727 0.26459,-0.24077 0.10583,-0.0609 0.23283,-0.0926 0.381,-0.0926 0.24871,0 0.42333,0.0741 0.5371,0.22754 0.11906,0.1614 0.17727,0.37042 0.17727,0.62442 v 2.66965 c 0,0.0582 0.0476,0.10583 0.10584,0.10583 h 1.10331 c 0.0582,0 0.10583,-0.0476 0.10583,-0.10583 v -2.41036 c 0,-0.12964 0.0185,-0.26723 0.0529,-0.40216 0.0344,-0.1323 0.0873,-0.25136 0.15875,-0.35719 0.0714,-0.10319 0.16139,-0.18786 0.27252,-0.254 0.10583,-0.0635 0.23548,-0.0952 0.38629,-0.0952 0.15611,0 0.28046,0.0317 0.36777,0.0926 0.0926,0.0635 0.16669,0.14552 0.21961,0.24342 0.0556,0.10054 0.0926,0.21696 0.10848,0.3466 0.0185,0.13759 0.0265,0.26723 0.0265,0.39159 v 2.44739 c 0,0.0582 0.0476,0.10584 0.10584,0.10584 h 1.10331 c 0.0582,0 0.10583,-0.0476 0.10583,-0.10584 v -2.76225 c 0,-0.23548 -0.0317,-0.46831 -0.0952,-0.69056" class="st0" inkscape:connector-curvature="0" style="fill:#0fad4b;stroke-width:0.26458332"/>
      <path id="path188" d="m 201.74479,210.8974 v -5.79173 c 0,-0.37306 -0.15875,-0.73025 -0.43921,-0.98425 l -3.93171,-3.47662 -0.44979,-0.39688 c -0.23812,-0.20108 -0.53975,-0.31221 -0.85196,-0.31221 -0.32808,0 -0.64293,0.12171 -0.88635,0.34132 l -2.61144,2.31775 c -0.037,0.0344 -0.0609,0.082 -0.0609,0.13229 v 1.27 c 0,0.0714 0.0423,0.13493 0.10583,0.16139 0.0635,0.0291 0.13758,0.0185 0.1905,-0.0291 l 2.90248,-2.5744 0.3519,-0.30956 c 0.003,-0.003 0.008,-0.003 0.0106,-0.005 l 4.35769,3.85233 c 0.003,0.003 0.003,0.005 0.003,0.008 v 6.20977 c 0,0.005 -0.005,0.0106 -0.0132,0.0106 H 168.8495 c -0.0979,0.005 -0.17727,0.0847 -0.17727,0.18257 v 0.9525 c 0,0.0979 0.0794,0.17991 0.17727,0.17991 h 30.64669 0.83344 0.59267 c 0.45243,0 0.8202,-0.36777 0.8202,-0.82021 V 211.165 Z" class="st0" inkscape:connector-curvature="0" style="fill:#0fad4b;stroke-width:0.26458332"/>
      <path id="path190" d="m 191.43927,203.58961 -0.97102,0.86254 c -0.0423,0.0344 -0.0662,0.0873 -0.0662,0.14023 v 5.86317 c 0,0.0556 0.045,0.10054 0.10054,0.10054 h 1.10861 c 0.0556,0 0.10054,-0.045 0.10054,-0.10054 l 0.005,-6.74688 c 0,-0.12435 -0.13758,-0.23019 -0.27781,-0.11906" class="st0" inkscape:connector-curvature="0" style="fill:#0fad4b;stroke-width:0.26458332"/>
    </g>
  </g>
  <style id="style176" type="text/css">
	.st0{fill:#0FAD4B;}
</style>
</svg>