<svg width="91" height="92" viewBox="0 0 91 92" fill="none" xmlns="http://www.w3.org/2000/svg">
<g filter="url(#filter0_f_5180_25580)">
<ellipse cx="27.5659" cy="28" rx="27.5659" ry="28" transform="matrix(1 0 0 -1 18 74)" fill="#FFFC97"/>
</g>
<path d="M28.7417 42.7025C28.6463 40.2914 29.2683 37.7661 30.4561 35.7422C31.6465 33.7131 32.4723 32.8136 34.289 31.567C36.488 30.0584 39.1451 29.3266 42.0803 29.4209C43.5297 29.4676 45.6517 29.692 45.6517 29.692C45.6517 29.692 44.0694 30.2567 42.822 30.7171C39.7615 31.8464 37.4324 33.3461 35.0508 35.7205C32.2807 38.4824 29.1704 46.0117 29.1704 46.0117C29.1704 46.0117 28.8086 44.4024 28.7417 42.7025Z" fill="#222222"/>
<path d="M29.5526 54.6224C28.733 52.3203 28.5318 50.286 28.8928 47.9468C29.031 47.0508 29.1477 46.2015 29.1704 46.1733C29.1932 46.1447 29.5427 47.1648 29.9288 48.326C30.954 51.4086 31.9754 53.1496 34.2513 55.6951C36.7851 58.5284 39.5279 60.3879 42.8604 61.5317C44.1482 61.9738 45.462 62.3595 45.4093 62.4122C44.9913 62.8302 40.7746 62.9826 39.0354 62.6382C36.0744 62.0519 34.3819 61.0697 32.1083 58.6185C30.5528 56.9414 30.1581 56.3244 29.5526 54.6224Z" fill="#222222"/>
<path d="M55.9619 35.744C53.3865 33.1757 51.3567 31.852 48.2412 30.7088C46.997 30.2523 45.8133 29.692 45.8133 29.692C45.8133 29.692 46.7707 29.5583 47.4364 29.4678C54.849 28.461 61.1924 33.2458 62.2355 40.6302C62.4086 41.8572 62.0894 46.0114 61.8098 46.0117C61.9032 46.1051 62.06 47.603 62.1806 48.6441C62.9435 55.2324 58.1023 61.6134 51.5065 62.7124C49.8282 62.9922 45.9677 62.809 45.5709 62.4122C45.5084 62.3497 46.3541 62.1017 47.1133 61.8844C50.4664 60.9246 53.2746 59.0189 55.7168 56.5942C58.726 53.6068 60.1021 51.4395 61.1128 48.0966C61.3832 47.202 61.6945 46.004 61.7994 46.0068C61.6992 45.9214 61.3599 44.7382 61.0324 43.7595C60.0039 40.6855 58.4429 38.2178 55.9619 35.744Z" fill="#222222"/>
<defs>
<filter id="filter0_f_5180_25580" x="0.635658" y="0.635658" width="89.8605" height="90.7287" filterUnits="userSpaceOnUse" color-interpolation-filters="sRGB">
<feFlood flood-opacity="0" result="BackgroundImageFix"/>
<feBlend mode="normal" in="SourceGraphic" in2="BackgroundImageFix" result="shape"/>
<feGaussianBlur stdDeviation="8.68217" result="effect1_foregroundBlur_5180_25580"/>
</filter>
</defs>
</svg>
